/* XPM */
static char * chest_open_xpm[] = {
"35 35 77 1",
" 	c None",
".	c #51AC0F",
"+	c #3AA407",
"@	c #3B9D0A",
"#	c #349B09",
"$	c #3BA30A",
"%	c #249404",
"&	c #4AA50E",
"*	c #419F0C",
"=	c #2A9606",
"-	c #319708",
";	c #33A306",
">	c #249B04",
",	c #41B207",
"'	c #4AAB0E",
")	c #3CAB0A",
"!	c #34A309",
"~	c #1B8E03",
"{	c #159301",
"]	c #44B30B",
"^	c #35B209",
"/	c #35AB09",
"(	c #329C06",
"_	c #2EA308",
":	c #24A304",
"<	c #1D9B02",
"[	c #1D9303",
"}	c #279408",
"|	c #25AA04",
"1	c #4DAB10",
"2	c #43A30C",
"3	c #3A950B",
"4	c #2E9A08",
"5	c #2CAA06",
"6	c #2EAB08",
"7	c #41AB07",
"8	c #1DA202",
"9	c #2CA305",
"0	c #3AB207",
"a	c #2C9B06",
"b	c #33AA06",
"c	c #148C01",
"d	c #41A407",
"e	c #47A910",
"f	c #47A310",
"g	c #2D9608",
"h	c #4BBA0D",
"i	c #43AB0C",
"j	c #249B08",
"k	c #3AAB07",
"l	c #44BA0C",
"m	c #319707",
"n	c #218F04",
"o	c #4BB30D",
"p	c #53B410",
"q	c #118701",
"r	c #58BE0F",
"s	c #27A408",
"t	c #399D07",
"u	c #0C8600",
"v	c #21110D",
"w	c #B6BEC8",
"x	c #755338",
"y	c #503625",
"z	c #342319",
"A	c #677598",
"B	c #242A3D",
"C	c #288C06",
"D	c #4DB310",
"E	c #171C31",
"F	c #3CB20A",
"G	c #3DBA0A",
"H	c #0E9300",
"I	c #0D8A00",
"J	c #39B807",
"K	c #2CB106",
"L	c #33B206",
".+@#@@$%&*=-;;>,')!~{]^/(]_:<$[}|[>",
"1+#@#2;32@#4!<>5&+6=%]/_+7_!8+[[9{[",
"&0#@#*a@@&@4b:>_#&/=[)#a2!!+:ac%9c[",
"&/4#$d>#&@e4_>[a=$/}~/43f_9;;[[)+~[",
"&+9(@2a_$@&##;[}###>~#g+2;=$a9[>h[~",
"#2|=#7+ab$@#@+<>((>->442(@%$;)>[a9~",
"9i5<#+#b)+$#4#98aaa+j=g$=$a@&klc}%=",
"_i9>a_+$!)$i##a%;m=4an4@4d@4ih99j~%",
">)(<a9k;)]|)o[#>9&>=a~#@@&$#ip/_:~q",
">k7>aa/97)b97![#%$a=g~##@$@4&ih%9qc",
":+)>%479(r0sba-%}a#g-ct@*##+*+'a>cu",
">a#([a+)>ih_vvvvvvvvvv(3*3=$2a&*a=u",
"7=@a~a=79npvwwxxxxxxwwv%*@%#&nt&%![",
"kaaa%}}d/~vxvvvvvvvvvvxv*3n-@=~&#g%",
"_a9a%%=3+}vxvvvvvvvvvvxv2-%3#=~n2=!",
">+>#[%g-#avxvvvvvvvvvvxv*-m*-~n~-#>",
"a#>+%%==#@vywwxxxxxxwwyv##-@*~%c%2~",
">=a@}n%=-*vzAAyABBAyAAzv(=#@@C~~[&(",
"%=##a}%}=#vzAAyABBAyAAzv>@}#2n~~cD'",
"}~3m>=nn%EvzAAyABBAyAAzvE@}=#n~%<]o",
">~##%mC~~EvzAAyAAAAyAAzvEa#;%%~=>Fi",
"n~m#=m=%cEvzAAyyyyyyAAzvE_!)~~u<6ei",
"%[%@}(=~~EEvAAyyyyyyAAvEEaai~~~[;27",
"%%[34#%~[[EEEEEEEEEEEEEE))>i~>n<+@!",
"=%[>=@%%<$a@EEEEEEEEEE#+))a$c>^:9#$",
"==~=[d[>>7:=i)&i;=={{4!a)#a%q%G6s:2",
"}%q}_2<>a+>90!ii+#}[H>$4)444u[5l982",
"3%q}>(!a5ba>]b7e+$=[I<&g!(;ac[>Jb:9",
"#%u}%=da|b_aKbb'd$==u{+@=;9((a[9l>|",
"#=q=>=*>skab+k9]&@4#uIa&=;j#+9>s)9>",
"#}[%@a@m|)k_'/b57+!acu>i4g>[5:88%79",
"+%}aa@$(|)bbo^^!)&2>~u[14g+[/>8:b))",
"$==={+@d|/9/,:G9s724%u~&;}>%L>89a+!",
"(==+sa!i|99Ll:b:8)$#%I=d9=;>b%|b+ae",
"=@(k9[)$_>b6l5+b:s#$>%%$8##b9<%b/a;"};
