/* XPM */
static char * end_xpm[] = {
"35 35 68 1",
" 	c None",
".	c #51AC0F",
"+	c #3AA407",
"@	c #3B9D0A",
"#	c #349B09",
"$	c #3BA30A",
"%	c #249404",
"&	c #4AA50E",
"*	c #419F0C",
"=	c #2A9606",
"-	c #319708",
";	c #33A306",
">	c #249B04",
",	c #41B207",
"'	c #4AAB0E",
")	c #3CAB0A",
"!	c #34A309",
"~	c #1B8E03",
"{	c #159301",
"]	c #44B30B",
"^	c #35B209",
"/	c #35AB09",
"(	c #329C06",
"_	c #2EA308",
":	c #24A304",
"<	c #1D9B02",
"[	c #1D9303",
"}	c #279408",
"|	c #25AA04",
"1	c #4DAB10",
"2	c #43A30C",
"3	c #3A950B",
"4	c #2E9A08",
"5	c #2CAA06",
"6	c #2EAB08",
"7	c #41AB07",
"8	c #1DA202",
"9	c #2CA305",
"0	c #3AB207",
"a	c #2C9B06",
"b	c #33AA06",
"c	c #148C01",
"d	c #41A407",
"e	c #47A910",
"f	c #47A310",
"g	c #61B4CD",
"h	c #2D9608",
"i	c #4BBA0D",
"j	c #43AB0C",
"k	c #3AAB07",
"l	c #44BA0C",
"m	c #249B08",
"n	c #6CDEE9",
"o	c #53B410",
"p	c #118701",
"q	c #0C8600",
"r	c #B5F8FF",
"s	c #399D07",
"t	c #218F04",
"u	c #4DB310",
"v	c #4BB30D",
"w	c #3CB20A",
"x	c #319707",
"y	c #3DBA0A",
"z	c #27A408",
"A	c #39B807",
"B	c #33B206",
"C	c #0D8A00",
".+@#@@$%&*=-;;>,')!~{]^/(]_:<$[}|[>",
"1+#@#2;32@#4!<>5&+6=%]/_+7_!8+[[9{[",
"&0#@#*a@@&@4b:>_#&/=[)#a2!!+:ac%9c[",
"&/4#$d>#&@e4_>[a=$/}~/43f_9;;[[)+~[",
"&+9(@2a_$@&##;[gggg>~#h+2;=$a9[>i[~",
"#2|=#7+ab$@#gggggggggg42(@%$;)>[a9~",
"9j5<#+#b)+gggggggggggggg=$a@&klc}%=",
"_j9>a_+$gggggggggggggggggg@4ji99m~%",
">)(<a9kggggggggggggggnnnngg#jo/_:~p",
">k7>aaggggggggggggnnnngggnnn&ji%9pc",
":+)>%gggggggggggnnggggggggggn+'a>cq",
">a#([ngggggggggnggggrrrrrrggga&*a=q",
"7=@aggnngggggnngggrrggggggrrggs&%![",
"kaaaggggngggngggrrggnrrrrnggrg~&#h%",
"_a9nnngggnnngggrrggrrrngnrrggngt2=!",
">+>ggnnngggggrrggnrrngggggrrgrn~-#>",
"a#>nggggnnnrrggnrrrggrrrrggrrgnc%2~",
">=nnnnngggggggnrrrggrrrrrrggrrrn[&(",
"%=gnnnnnnnnnrnrrrgggrrggrrrggrrncu'",
"}~gggnnnnnnrnrrrnggrrrrrrrggrrng<]v",
">~#gggggnnnnnggrrggggrrrrggnrrgg>wj",
"t~xnngggggggggggrrngggggggnrrgg<6ej",
"%[%ggnnnnngggggggrrrrggggrrrggr[;27",
"%%[nggnnggnnrrrggggrrrrrrrrggrn<+@!",
"=%[>nnnnnggggggrrggggrrrrgggrr^:9#$",
"==~=gggggnnnnnggrrrgggggggrrgny6z:2",
"}%p}_gggggggggngggrrrrggrrrgg[5l982",
"3%p}>ggggggggggnnggggrrrrgggn[>Ab:9",
"#%q}%=gggggggggggnngggggggnn(a[9l>|",
"#=p=>=*gggggggggggnnnnggnng#+9>z)9>",
"#}[%@a@xgggggggggggggnnngg>[5:88%79",
"+%}aa@$(|)gggggggggggggg4h+[/>8:b))",
"$==={+@d|/9/gggggggggg~&;}>%B>89a+!",
"(==+za!j|99Bl:bgggg#%C=d9=;>b%|b+ae",
"=@(k9[)$_>b6l5+b:z#$>%%$8##b9<%b/a;"};
