/* XPM */
static char * land_xpm[] = {
"35 35 69 1",
" 	c None",
".	c #4DAB10",
"+	c #3AA407",
"@	c #349B09",
"#	c #3B9D0A",
"$	c #43A30C",
"%	c #33A306",
"&	c #3A950B",
"*	c #2E9A08",
"=	c #34A309",
"-	c #1D9B02",
";	c #249B04",
">	c #2CAA06",
",	c #4AA50E",
"'	c #2EAB08",
")	c #2A9606",
"!	c #249404",
"~	c #44B30B",
"{	c #35AB09",
"]	c #2EA308",
"^	c #41AB07",
"/	c #1DA202",
"(	c #1D9303",
"_	c #2CA305",
":	c #159301",
"<	c #3AB207",
"[	c #419F0C",
"}	c #2C9B06",
"|	c #33AA06",
"1	c #24A304",
"2	c #3CAB0A",
"3	c #148C01",
"4	c #3BA30A",
"5	c #41A407",
"6	c #47A910",
"7	c #279408",
"8	c #1B8E03",
"9	c #47A310",
"0	c #329C06",
"a	c #2D9608",
"b	c #4BBA0D",
"c	c #25AA04",
"d	c #319708",
"e	c #43AB0C",
"f	c #249B08",
"g	c #3AAB07",
"h	c #44BA0C",
"i	c #319707",
"j	c #218F04",
"k	c #4BB30D",
"l	c #53B410",
"m	c #118701",
"n	c #58BE0F",
"o	c #27A408",
"p	c #399D07",
"q	c #4AAB0E",
"r	c #0C8600",
"s	c #218705",
"t	c #288C06",
"u	c #4DB310",
"v	c #3CB20A",
"w	c #35B209",
"x	c #3DBA0A",
"y	c #0E9300",
"z	c #0D8A00",
"A	c #39B807",
"B	c #2CB106",
"C	c #41B207",
"D	c #33B206",
".+@#@$%&$#@*=-;>,+')!~{]+^]=/+((_:(",
",<@#@[}##,#*|1;]@,{)(2@}$==+1}3!_3(",
",{*@45;@,#6*];(})4{78{*&9]_%%((2+8(",
",+_0#$}]4#,@@%(7@@@;8@a+$%)4}_(;b(8",
"@$c)@^+}|4#@#+-;00;d;**$0#!4%2;(}_8",
"_e>-@+@|2+4@*@_/}}}+f)a4)4}#,gh37!)",
"]e_;}]+4=24e@@}!%i)*}j*#*5#*eb__f8!",
";20-}_g%2~c2k(@;_,;)}8@##,4@el{]18m",
";g^;}}{_^2|_^=(@!4})a8@@#4#*,eb!_m3",
"1+2;!*^_0n<o|}d!7}@ad3p#[@@+[+q};3r",
";}@0(}+2;eb]o*[dj(**d80&[&)4$},[})r",
"^)#}8})^_jl{;7@#!8*)ds8![#!@,jp,!=(",
"g}}}!775{85k}(8,)@@)@))7[&jd#)8,@a!",
"]}_}!!)&+7a9@(89!@@)i)d)$d!&@)8j$)=",
";+;@(!ad@})$$8ja7!))77!#[di[d8j8d@;",
"}@;+!!))@#j#d7aj@-d)!780@@d#[8!3!$8",
";)}#7j!)d[8d&!d7}-@;88j;0)@##t88(,0",
"!)@@}7!7)@7!#(#)!!*;:!7};#7@$j883uq",
"78&i;)jj!)#!#8@d}-0}:!}}1#7)@j8!-~k",
";8@@!it88t%@[!+#}-@;(;!)o}@%!!8);ve",
"j8i@)i)!3!)e@*,');0;!)!*}]=288r-'6e",
"!(!#70)88(7$=@4=;)};!)0$+}}e888(%$^",
"!!(&*@!8((%#=,[5_}}-(@p522;e8;j-+#=",
")!(;)#!!-4}#,4$4+;}:(#@+22}43;w1_@4",
"))8)(5(;;^1)e2,e%))::*=}2@}!m!x'o1$",
"7!m7]$-;}+;_<=ee+@7(y;4*2***r(>h_/$",
"&!m7;0=}>|};~|^6+4)(z-,a=0%}3(;A|1_",
"@!r7!)5}c|]}B||q54))r:+#)%_00}(_h;c",
"@)m);)[;og}|+g_~,#*@rz},)%f@+_;o2_;",
"@7(!#}#ic2g]q{|>^+=}3r;e*a;(>1//!^_",
"+!7}}#40c2||kww=2,$;8r(.*a+({;/1|22",
"4))):+#5c{_{C1x_o^$*!r8,%7;!D;/_}+=",
"0))+o}=ec__Dh1|1/24@!z)5_)%;|!c|+}6",
")#0g_(24];|'h>+|1o@4;!!4/@@|_-!|{}%",
"!${v]=+==}'<<>2^o>;5))}+_=@}}!!0%__"};
