/* XPM */
static char * player1_xpm[] = {
"15 21 48 1",
" 	c None",
".	c #58BE0F",
"+	c #3AB207",
"@	c #000000",
"#	c #249404",
"$	c #349B09",
"%	c #2D9608",
"&	c #319708",
"*	c #148C01",
"=	c #399D07",
"-	c #3B9D0A",
";	c #43AB0C",
">	c #4BBA0D",
",	c #573A23",
"'	c #402717",
")	c #1B8E03",
"!	c #329C06",
"~	c #3A950B",
"{	c #218F04",
"]	c #53B410",
"^	c #218705",
"/	c #2A9606",
"(	c #279408",
"_	c #AC7B5D",
":	c #21110D",
"<	c #C1AC8F",
"[	c #2C9B06",
"}	c #288C06",
"|	c #2E9A08",
"1	c #1D9303",
"2	c #43A30C",
"3	c #33A306",
"4	c #787E97",
"5	c #41A407",
"6	c #3BA30A",
"7	c #A4A8B5",
"8	c #3AA407",
"9	c #41AB07",
"0	c #24A304",
"a	c #34A309",
"b	c #249B04",
"c	c #2C65B5",
"d	c #33AA06",
"e	c #171C31",
"f	c #1D438A",
"g	c #4AA50E",
"h	c #3AAB07",
"i	c #3CAB0A",
".+@@@@#@@$%&*=-",
";>@,,'@,@@@&)!~",
"{]@@,,',',,@^)#",
")@',,,,,,,,,@/(",
"@',,,,,,,,,,,@/",
"@',,',,,'',,,@-",
"@'''',,,'__','@",
"@','',,'____''@",
"@',,_',_:<<:@'@",
"@'',__'<:<<:@@[",
"}@''__<<<<<<@#/",
"#/@''__<<<<_@#|",
"1(2@''_____@/!2",
"13-@'',444'@$=5",
"6[-@',,447'@-$8",
"90@<<,,477'_@a[",
"8b@<<,,ccc'_@6|",
"d[e@fccfcc@@eg%",
"dee@',@@',@eee-",
"heeeeeeeeeeeeeg",
"iheeeeeeeeeeeb;"};
