/* XPM */
static char * tree_xpm[] = {
"35 35 69 1",
" 	c None",
".	c #51AC0F",
"+	c #3AA407",
"@	c #3B9D0A",
"#	c #349B09",
"$	c #3BA30A",
"%	c #249404",
"&	c #4AA50E",
"*	c #419F0C",
"=	c #2A9606",
"-	c #319708",
";	c #33A306",
">	c #249B04",
",	c #41B207",
"'	c #4AAB0E",
")	c #3CAB0A",
"!	c #34A309",
"~	c #1B8E03",
"{	c #159301",
"]	c #44B30B",
"^	c #35B209",
"/	c #35AB09",
"(	c #329C06",
"_	c #2EA308",
":	c #24A304",
"<	c #1D9B02",
"[	c #1D9303",
"}	c #279408",
"|	c #25AA04",
"1	c #4DAB10",
"2	c #43A30C",
"3	c #3A950B",
"4	c #2E9A08",
"5	c #2CAA06",
"6	c #2EAB08",
"7	c #082B0C",
"8	c #41AB07",
"9	c #1DA202",
"0	c #2CA305",
"a	c #3AB207",
"b	c #2C9B06",
"c	c #53A03B",
"d	c #148C01",
"e	c #41A407",
"f	c #347B2C",
"g	c #4BBA0D",
"h	c #43AB0C",
"i	c #3AAB07",
"j	c #44BA0C",
"k	c #249B08",
"l	c #53B410",
"m	c #118701",
"n	c #0C8600",
"o	c #2D9608",
"p	c #114517",
"q	c #4DB310",
"r	c #4BB30D",
"s	c #3CB20A",
"t	c #218F04",
"u	c #47A910",
"v	c #21110D",
"w	c #342319",
"x	c #171C31",
"y	c #503625",
"z	c #33AA06",
"A	c #3DBA0A",
"B	c #27A408",
"C	c #33B206",
"D	c #0D8A00",
".+@#@@$%&*=-;;>,')!~{]^/(]_:<$[}|[>",
"1+#@#2;32@#4!<>5&+6=777_+8_!9+[[0{[",
"&a#@#*b@@7777:>_#&/7ccc72!!+:bd%0d[",
"&/4#$e>#7cccc7[b77/ccccc777;;[[)+~[",
"&+0(@2b_7ccccc77ff7ccccc7ff7b0[>g[~",
"#2|=#8777cccccc7cc7cccc7fccf7)>[b0~",
"0h5<#7fccfccccccccfccccccccc7ijd}%=",
"_h0777cccccccccccccccccccccf7g00k~%",
">)7cc7ccccccccccccccccccccf77l/_:~m",
">i7cccccccccccccccccccccccccc7g%0md",
":+7cfccccccccccccccccccccccccc7b>dn",
">b#7ccccccccccccccccccccccccccc7b=n",
"8=@7ccccccccccccccccccccccfcccc7%![",
"ib7fccfccccccccccccccccccccfccc7#o%",
"_b7cccffcccccccccccccfcccccppff72=!",
">7fccfccccccccccccccccpfccfcc77~-#>",
"b7ffppcccccccccccccccccppffccc7d%2~",
">77ppccccfccccccccccccccffcccfp7[&(",
"%=77pccccfccccfccccccfcccffffff7dq'",
"}~7ffcccfccccccfccccccfccffppff7<]r",
">7fccffffccfcccfccccccfffccfppp7>sh",
"t7pccccfffccffffcccccffffcccfpp76uh",
"%[7fccccfccccffcfccfffpccfccf77v;28",
"%%v7fpccfccccfcccfccppfccccffp7wv@!",
"=v7fffpffcccfpccccccc7ffpcffpp7wv#$",
"=v7fff7ffpffppfccfccf77pffpppp7wv:2",
"}v7ffp7ppfffppffffpffp7pff7ppp7xx92",
"3vw7pp77pffffppfffpppp77pp7777xxx:0",
"#xxx77w7pp7ffpp7ppppp7ww77vxxxxxx>|",
"#=xxxvyy777ppp7w77777vwyyywvxxxx)0>",
"#}[xxvyyyww777yyywvxxxvwyyyvxxx9%80",
"+%}bxxxywwvxxvyywvxxxxxxxxxxx>9:z))",
"$==={+@e|/0/,:A0B824%n~&;}>%C>90b+!",
"(==+Bb!h|00Cj:z:9)$#%D=e0=;>z%|z+bu",
"=@(i0[)$_>z6j5+z:B#$>%%$9##z0<%z/b;"};
